<?xml version="1.0" encoding="UTF-8" standalone="no"?>
<!-- Created with Inkscape (http://www.inkscape.org/) -->

<svg
   version="1.1"
   id="svg2"
   width="2653.3333"
   height="1400"
   viewBox="0 0 2653.3333 1400"
   sodipodi:docname="ph flag.svg"
   inkscape:version="1.3 (0e150ed6c4, 2023-07-21)"
   xmlns:inkscape="http://www.inkscape.org/namespaces/inkscape"
   xmlns:sodipodi="http://sodipodi.sourceforge.net/DTD/sodipodi-0.dtd"
   xmlns="http://www.w3.org/2000/svg"
   xmlns:svg="http://www.w3.org/2000/svg">
  <defs
     id="defs6" />
  <sodipodi:namedview
     id="namedview4"
     pagecolor="#ffffff"
     bordercolor="#000000"
     borderopacity="0.25"
     inkscape:showpageshadow="2"
     inkscape:pageopacity="0.0"
     inkscape:pagecheckerboard="0"
     inkscape:deskcolor="#d1d1d1"
     inkscape:zoom="2.7310668"
     inkscape:cx="1312.4908"
     inkscape:cy="703.93738"
     inkscape:window-width="1920"
     inkscape:window-height="1009"
     inkscape:window-x="-8"
     inkscape:window-y="-8"
     inkscape:window-maximized="1"
     inkscape:current-layer="g10" />
  <g
     id="g8"
     inkscape:groupmode="layer"
     inkscape:label="Ph FLAG"
     transform="matrix(1.3333333,0,0,-1.3333333,0,1400)">
    <g
       id="g10"
       transform="matrix(0.00997112,0,0,0.01079865,895.7874,468.30709)"
       inkscape:label="components">
      <path
         d="M 8633.59,5260.25 8650.49,5250 56.0664,0 H 19900 V 5260.25 H 8633.59"
         style="fill:#cc172c;fill-opacity:1;fill-rule:nonzero;stroke:none"
         id="path12"
         inkscape:label="red" />
      <path
         d="M 19900,10500 H 0 v -2.6 L 8633.59,5260.25 H 19900 V 10500"
         style="fill:#073ca5;fill-opacity:1;fill-rule:nonzero;stroke:none"
         id="path14"
         inkscape:label="blue" />
      <path
         d="M 0,10497.4 V 0 H 56.0664 L 8650.49,5250 0,10497.4"
         style="fill:#ffffff;fill-opacity:1;fill-rule:nonzero;stroke:none"
         id="path16"
         inkscape:label="white" />
      <path
         d="m 4141.82,5257.41 c 0,-576.5 -442.01,-1043.82 -987.21,-1043.82 -545.21,0 -987.22,467.32 -987.22,1043.82 0,576.47 442.01,1043.77 987.22,1043.77 545.2,0 987.21,-467.3 987.21,-1043.77"
         style="fill:#fbd036;fill-opacity:1;fill-rule:nonzero;stroke:none"
         id="path18"
         inkscape:label="sun body" />
      <path
         d="m 3150.29,7478.3 -138.5,-146.43 71.37,-1034.01 130.09,-13.29 58.79,1060.6 -121.75,133.13"
         style="fill:#fbd036;fill-opacity:1;fill-rule:nonzero;stroke:none"
         id="path20"
         inkscape:label="ray 24" />
      <path
         d="m 3397.96,7238.7 -117.55,-958.58 46.18,-8.89 172.06,852.07 -100.69,115.4"
         style="fill:#fbd036;fill-opacity:1;fill-rule:nonzero;stroke:none"
         id="path22"
         inkscape:label="ray 23" />
      <path
         d="m 2898.48,7234.26 117.52,-958.59 -46.18,-8.85 -172.07,852.04 100.73,115.4"
         style="fill:#fbd036;fill-opacity:1;fill-rule:nonzero;stroke:none"
         id="path24"
         inkscape:label="ray 22" />
      <path
         d="m 4636.94,6818.2 -195.89,1.25 -645.47,-780.38 82.47,-107.22 754.87,701.23 4.02,185.12"
         style="fill:#fbd036;fill-opacity:1;fill-rule:nonzero;stroke:none"
         id="path26"
         inkscape:label="ray 21" />
      <path
         d="m 4649.74,6463.53 -727.49,-585.32 26.48,-40.93 694.19,469.39 6.82,156.86"
         style="fill:#fbd036;fill-opacity:1;fill-rule:nonzero;stroke:none"
         id="path28"
         inkscape:label="ray 20" />
      <path
         d="M 4295.7,6836.07 3733.41,6074 l -38.41,28.48 452.27,728.26 148.43,5.33"
         style="fill:#fbd036;fill-opacity:1;fill-rule:nonzero;stroke:none"
         id="path30"
         inkscape:label="ray 19" />
      <path
         d="m 5240.41,5246.55 -137.67,147.37 -978.31,-69.26 -13.38,-137.46 1002.75,-68.5 126.61,127.85"
         style="fill:#fbd036;fill-opacity:1;fill-rule:nonzero;stroke:none"
         id="path32"
         inkscape:label="ray 18" />
      <path
         d="m 5012.28,4986.2 -905.84,130.02 -8.64,-48.75 804.77,-187.09 109.71,105.82"
         style="fill:#fbd036;fill-opacity:1;fill-rule:nonzero;stroke:none"
         id="path34"
         inkscape:label="ray 17" />
      <path
         d="m 5011.1,5514.32 -907.24,-118.48 -8.15,48.87 806.86,176.79 108.53,-107.18"
         style="fill:#fbd036;fill-opacity:1;fill-rule:nonzero;stroke:none"
         id="path36"
         inkscape:label="ray 16" />
      <path
         d="m 4616.14,3685.21 1.17,207.11 -738.09,682.52 -101.37,-87.23 663.24,-798.13 175.05,-4.27"
         style="fill:#fbd036;fill-opacity:1;fill-rule:nonzero;stroke:none"
         id="path38"
         inkscape:label="ray 15" />
      <path
         d="m 4280.69,3671.66 -553.57,769.2 -38.76,-27.99 443.98,-734 148.35,-7.21"
         style="fill:#fbd036;fill-opacity:1;fill-rule:nonzero;stroke:none"
         id="path40"
         inkscape:label="ray 14" />
      <path
         d="m 4633.04,4045.97 -720.79,594.57 26.97,40.61 688.78,-478.25 5.04,-156.93"
         style="fill:#fbd036;fill-opacity:1;fill-rule:nonzero;stroke:none"
         id="path42"
         inkscape:label="ray 13" />
      <path
         d="m 1665.99,3693.49 195.85,-1.2 645.51,780.38 -82.51,107.22 -754.84,-701.27 -4.01,-185.13"
         style="fill:#fbd036;fill-opacity:1;fill-rule:nonzero;stroke:none"
         id="path44"
         inkscape:label="ray 12" />
      <path
         d="m 1653.14,4048.21 727.49,585.28 -26.47,40.97 -694.16,-469.39 -6.86,-156.86"
         style="fill:#fbd036;fill-opacity:1;fill-rule:nonzero;stroke:none"
         id="path46"
         inkscape:label="ray 11" />
      <path
         d="m 2007.15,3675.62 562.33,762.11 38.41,-28.47 -452.31,-728.26 -148.43,-5.38"
         style="fill:#fbd036;fill-opacity:1;fill-rule:nonzero;stroke:none"
         id="path48"
         inkscape:label="ray 10" />
      <path
         d="m 1049.53,5258.33 137.7,-147.35 978.31,69.21 13.37,137.51 -1002.74,68.48 -126.64,-127.85"
         style="fill:#fbd036;fill-opacity:1;fill-rule:nonzero;stroke:none"
         id="path50"
         inkscape:label="ray 9" />
      <path
         d="m 1277.65,5518.68 905.89,-130.01 8.63,48.74 -804.77,187.1 -109.75,-105.83"
         style="fill:#fbd036;fill-opacity:1;fill-rule:nonzero;stroke:none"
         id="path52"
         inkscape:label="ray 8" />
      <path
         d="m 1278.83,4990.57 907.28,118.48 8.11,-48.86 -806.86,-176.8 -108.53,107.18"
         style="fill:#fbd036;fill-opacity:1;fill-rule:nonzero;stroke:none"
         id="path54"
         inkscape:label="ray 7" />
      <path
         d="m 1686.74,6833.35 -1.17,-207.08 738.06,-682.53 101.41,87.2 -663.2,798.16 -175.1,4.25"
         style="fill:#fbd036;fill-opacity:1;fill-rule:nonzero;stroke:none"
         id="path56"
         inkscape:label="ray 6" />
      <path
         d="m 2022.19,6846.88 553.58,-769.19 38.75,27.99 -443.98,734 -148.35,7.2"
         style="fill:#fbd036;fill-opacity:1;fill-rule:nonzero;stroke:none"
         id="path58"
         inkscape:label="ray 5" />
      <path
         d="m 1669.85,6472.58 720.78,-594.53 -26.93,-40.61 -688.77,478.2 -5.08,156.94"
         style="fill:#fbd036;fill-opacity:1;fill-rule:nonzero;stroke:none"
         id="path60"
         inkscape:label="ray 4" />
      <path
         d="m 3142.68,3053.95 139.32,145.55 -65.46,1034.45 -130.05,14.14 -64.78,-1060.25 120.97,-133.89"
         style="fill:#fbd036;fill-opacity:1;fill-rule:nonzero;stroke:none"
         id="path62"
         inkscape:label="ray 3" />
      <path
         d="m 2896.4,3295.15 122.97,957.82 -46.1,9.13 -176.96,-850.91 100.09,-116.04"
         style="fill:#fbd036;fill-opacity:1;fill-rule:nonzero;stroke:none"
         id="path64"
         inkscape:label="ray 2" />
      <path
         d="m 3395.88,3296.4 -112.06,959.29 46.22,8.58 167.25,-853.13 -101.41,-114.74"
         style="fill:#fbd036;fill-opacity:1;fill-rule:nonzero;stroke:none"
         id="path66"
         inkscape:label="ray1" />
      <path
         d="m 571.266,9585.4 299.797,-284.46 348.517,213.56 -163.24,-389.4 299.84,-284.47 -400.711,43.82 -163.239,-389.41 -84.437,416.48 -400.684,43.83 348.555,213.57 -84.398,416.48"
         style="fill:#fbd036;fill-opacity:1;fill-rule:nonzero;stroke:none"
         id="path68"
         inkscape:label="star 3" />
      <path
         d="m 295.637,1559.47 402.23,23.04 103.61,411.59 144.972,-397.37 402.241,22.99 -312.61,-268.61 144.97,-397.368 -338.206,231.348 -312.645,-268.57 103.645,411.6 -338.207,231.35"
         style="fill:#fbd036;fill-opacity:1;fill-rule:nonzero;stroke:none"
         id="path70"
         inkscape:label="star 2" />
      <path
         d="m 7241.95,5821.78 21.75,-425.34 389.27,-109.56 -375.83,-153.28 21.75,-425.29 -254.04,330.53 -375.83,-153.29 218.84,357.6 -254.03,330.57 389.28,-109.55 218.84,357.61"
         style="fill:#fbd036;fill-opacity:1;fill-rule:nonzero;stroke:none"
         id="path72"
         inkscape:label="star 1" />
    </g>
  </g>
</svg>
